


<svg version="1.1" xmlns="http://www.w3.org/2000/svg" xmlns:xlink="http://www.w3.org/1999/xlink" x="0px" y="0px" width="478px" height="467px" viewBox="0 0 478 469" enable-background="new 0 0 478 469" xml:space="preserve">
<g id="Layer2">
	<polygon fill="#D20315" points="140,468 -0,332 -0,137 140,0 338,0 479,137 
		479,332 338,468 	"></polygon>
</g>
<g id="Layer3">
	<path fill="#fff" d="M428.963,330.903l-143.765-74.124c3.276-6.752,5.116-14.33,5.116-22.338c0-8.218-1.945-15.979-5.385-22.863
		l142.454-73.485c3.583-3.445,3.681-9.157,0.235-12.74l-75.546-78.573c-3.445-3.583-9.128-3.68-12.711-0.235l-77.025,142.245
		c-6.983-3.565-14.884-5.589-23.263-5.589c-8.585,0-16.671,2.122-23.78,5.854L138.962,48.106c-3.517-3.513-9.229-3.497-12.742,0.02
		l-77.039,77.11c-3.513,3.517-3.496,9.2,0.021,12.713l143.752,74.146c-3.278,6.754-5.12,14.334-5.12,22.345
		c0,8.036,1.854,15.636,5.15,22.405L49.807,328.892c-3.618,3.41-3.773,9.12-0.364,12.737l74.753,79.328
		c3.409,3.617,9.091,3.771,12.708,0.362l78.45-141.463c7.094,3.713,15.159,5.824,23.72,5.824c8.589,0,16.677-2.123,23.787-5.858
		l76.354,140.938c3.518,3.513,9.229,3.495,12.742-0.022l77.027-77.121C432.499,340.099,432.48,334.416,428.963,330.903z"></path>
</g>
</svg>
